<?xml version="1.0" encoding="UTF-8"?>
<svg width="456" height="456" version="1.1" viewBox="0 0 456 456" xmlns="http://www.w3.org/2000/svg">
    <path d="M 150 180 L 150 120 L 250 120 Q 280 120 295 135 Q 310 150 310 180 Q 310 210 295 225 Q 280 240 250 240 L 200 240 L 200 280 L 250 280 Q 290 280 310 300 Q 330 320 330 360 Q 330 400 310 420 Q 290 440 250 440 L 150 440 L 150 380 L 240 380 Q 250 380 255 375 Q 260 370 260 360 Q 260 350 255 345 Q 250 340 240 340 L 180 340 L 180 200 L 240 200 Q 250 200 255 195 Q 260 190 260 180 Q 260 170 255 165 Q 250 160 240 160 L 150 160 Z" fill="#fff"/>
</svg>
